<?xml version="1.0" standalone="no"?>
<!DOCTYPE svg PUBLIC "-//W3C//DTD SVG 20010904//EN"
 "http://www.w3.org/TR/2001/REC-SVG-20010904/DTD/svg10.dtd">
<svg version="1.0" xmlns="http://www.w3.org/2000/svg"
 width="240.000000pt" height="240.000000pt" viewBox="0 0 240.000000 240.000000"
 preserveAspectRatio="xMidYMid meet">
<metadata>
Created by potrace 1.11, written by Peter Selinger 2001-2013
</metadata>
<g transform="translate(0.000000,240.000000) scale(0.100000,-0.100000)"
fill="#000000" stroke="none">
<path d="M982 1744 l-192 -186 -69 68 c-92 92 -106 103 -165 130 -53 24 -180
46 -193 33 -5 -4 -24 -9 -43 -12 -78 -10 -175 -79 -227 -161 -71 -112 -70
-271 2 -386 23 -36 673 -690 694 -698 5 -1 92 80 196 180 103 101 191 183 195
183 4 0 92 -82 195 -183 104 -100 192 -181 196 -180 4 2 159 153 344 336 306
303 340 340 368 400 88 189 14 396 -173 486 -58 27 -75 31 -155 31 -81 0 -97
-3 -155 -32 -44 -21 -92 -58 -148 -113 l-83 -82 -193 186 c-107 102 -195 186
-197 186 -2 0 -91 -84 -197 -186z m448 -321 c0 -3 -56 -62 -125 -131 l-124
-124 -126 124 c-69 69 -125 127 -125 130 0 4 56 63 125 132 l125 127 125 -126
c69 -69 125 -128 125 -132z m-940 157 c19 -10 65 -49 102 -87 l68 -68 -128
-128 -128 -128 -74 76 c-41 41 -82 88 -91 104 -23 43 -17 119 14 167 31 50 42
58 97 78 50 17 86 13 140 -14z m1545 4 c18 -7 48 -32 66 -55 29 -37 33 -49 33
-104 0 -58 -3 -66 -38 -109 -20 -25 -61 -69 -89 -96 l-52 -50 -127 127 -128
128 63 63 c117 120 171 139 272 96z m-1113 -675 l-127 -127 -65 61 c-36 34
-93 92 -128 128 l-63 67 127 127 127 127 128 -128 128 -128 -127 -127z m774
255 l126 -126 -43 -45 c-24 -24 -82 -82 -127 -129 l-84 -84 -128 128 -129 127
127 128 c70 70 128 127 129 127 1 0 59 -57 129 -126z"/>
</g>
</svg>
